<?xml version="1.0" encoding="UTF-8" standalone="no"?>
<svg
   id="svg1434"
   version="1.1"
   viewBox="0 0 72.231251 25.4"
   height="96"
   width="273"
   sodipodi:docname="logo.svg"
   inkscape:version="1.1.1 (3bf5ae0d25, 2021-09-20)"
   xmlns:inkscape="http://www.inkscape.org/namespaces/inkscape"
   xmlns:sodipodi="http://sodipodi.sourceforge.net/DTD/sodipodi-0.dtd"
   xmlns="http://www.w3.org/2000/svg"
   xmlns:svg="http://www.w3.org/2000/svg"
   xmlns:rdf="http://www.w3.org/1999/02/22-rdf-syntax-ns#"
   xmlns:cc="http://creativecommons.org/ns#"
   xmlns:dc="http://purl.org/dc/elements/1.1/">
  <sodipodi:namedview
     id="namedview18"
     pagecolor="#505050"
     bordercolor="#eeeeee"
     borderopacity="1"
     inkscape:pageshadow="0"
     inkscape:pageopacity="0"
     inkscape:pagecheckerboard="0"
     showgrid="false"
     fit-margin-top="0"
     fit-margin-left="0"
     fit-margin-right="0"
     fit-margin-bottom="0"
     inkscape:zoom="1.3105469"
     inkscape:cx="251.42175"
     inkscape:cy="75.540982"
     inkscape:window-width="2560"
     inkscape:window-height="1371"
     inkscape:window-x="2560"
     inkscape:window-y="32"
     inkscape:window-maximized="1"
     inkscape:current-layer="text6799" />
  <defs
     id="defs1428">
    <clipPath
       id="clipPath11622"
       clipPathUnits="userSpaceOnUse">
      <g
         id="g11624"
         transform="matrix(0.96968375,0,0,0.96968375,2344.6611,919.3584)">
        <g
           id="g11626">
          <path
             id="path11628"
             d="m -1380.549,-396.694 c -11.948,0 -14.193,17.022 -7.469,17.022 6.721,0.001 19.421,-17.022 7.469,-17.022 z"
             style="fill:#2e3436" />
          <path
             id="path11630"
             d="m -1400.394,-381.782 c 3.582,0.22 7.508,-13.66 0.78,-12.788 -6.726,0.873 -4.361,12.571 -0.78,12.788 z"
             style="fill:#2e3436" />
          <path
             id="path11632"
             d="m -1416.799,-373.157 c 2.545,-1.122 0.327,-12.084 -4.003,-9.092 -4.327,2.991 1.458,10.212 4.003,9.092 z"
             style="fill:#2e3436" />
          <path
             id="path11634"
             d="m -1409.627,-378.894 c 3.032,-0.619 3.197,-13.05 -2.206,-10.82 -5.406,2.23 -0.821,11.438 2.206,10.82 z"
             style="fill:#2e3436" />
          <path
             id="path11636"
             d="m -1393.798,-351.072 c 0.537,4.105 -3.014,6.134 -6.491,3.487 -11.07,-8.428 18.329,-12.634 16.39,-24.147 -1.606,-9.558 -30.933,-6.617 -34.273,8.34 -2.261,10.114 9.305,24.147 21.371,24.147 5.938,0 12.785,-5.361 14.067,-12.151 0.977,-5.179 -11.514,-3.102 -11.064,0.324 z"
             style="fill:#2e3436" />
        </g>
      </g>
    </clipPath>
  </defs>
  <metadata
     id="metadata1431">
    <rdf:RDF>
      <cc:Work
         rdf:about="">
        <dc:format>image/svg+xml</dc:format>
        <dc:type
           rdf:resource="http://purl.org/dc/dcmitype/StillImage" />
      </cc:Work>
    </rdf:RDF>
  </metadata>
  <g
     transform="translate(231.19251,-23.386546)"
     id="layer1">
    <g
       transform="translate(5.2519667,28.16496)"
       id="text874"
       style="font-style:normal;font-weight:normal;font-size:32.584px;line-height:1.25;font-family:sans-serif;letter-spacing:0px;word-spacing:0px;opacity:0.99;fill:#000000;fill-opacity:1;stroke:none;stroke-width:0.872786"
       aria-label="GJS">
      <path
         id="path897"
         style="fill:#4a86cf;fill-opacity:1;stroke-width:0.872786"
         d="m -227.19062,17.378706 c 2.76964,0 5.05052,-1.107856 6.38646,-2.476384 V 5.9091377 h -6.77747 v 2.248296 h 4.2685 v 5.5718643 c -0.8146,0.782016 -2.21571,1.270776 -3.71457,1.270776 -4.20334,0 -6.58197,-3.388736 -6.58197,-8.7650963 0,-5.31119192 2.6393,-8.6347599 6.64713,-8.6347599 2.0528,0 3.32357,0.847184 4.36626,1.95504 l 1.53145,-1.726952 c -1.20561,-1.270776 -3.0629,-2.60672 -5.89771,-2.60672 -5.53928,0 -9.48194,4.170752 -9.48194,11.0785599 0,6.9729763 3.8775,11.0785603 9.25386,11.0785603 z" />
      <path
         id="path899"
         style="font-style:normal;font-variant:normal;font-weight:normal;font-stretch:normal;font-family:'Source Code Pro';-inkscape-font-specification:'Source Code Pro';stroke-width:0.872786"
         d="m -209.64058,17.378706 c 5.3112,0 7.07073,-3.2584 7.07073,-7.233648 V -4.4199902 h -11.66507 v 2.28088 h 8.9606 V 9.9169697 c 0,3.5190723 -1.36853,5.0831043 -4.43142,5.0831043 -1.66179,0 -3.38874,-0.912352 -4.59435,-2.834808 l -1.69437,1.661784 c 1.46628,2.4438 3.97525,3.551656 6.35388,3.551656 z" />
      <path
         id="path901"
         style="font-style:normal;font-variant:normal;font-weight:normal;font-stretch:normal;font-family:'Source Code Pro';-inkscape-font-specification:'Source Code Pro';fill:#000000;fill-opacity:1;stroke-width:0.87286;stroke-miterlimit:4;stroke-dasharray:none"
         d="m -189.15797,17.378706 c 4.6921,0 7.55949,-2.704472 7.55949,-6.093208 0,-3.1606483 -2.08538,-4.6269283 -4.72468,-5.7022003 l -2.99773,-1.30336 c -1.8247,-0.7494319 -3.81233,-1.4988639 -3.81233,-3.55165592 0,-1.92245598 1.66179,-3.12806398 4.13817,-3.12806398 2.21571,0 3.84491,0.782016 5.24603,2.020208 l 1.43369,-1.759536 c -1.56403,-1.564032 -3.91008,-2.639304 -6.58197,-2.639304 -4.073,0 -7.00556,2.411216 -7.00556,5.66961598 0,3.12806392 2.47639,4.65951192 4.62693,5.50669592 l 3.0629,1.335944 c 2.18313,0.944936 3.84491,1.596616 3.84491,3.8774963 0,1.987624 -1.72695,3.388736 -4.65951,3.388736 -2.4438,0 -4.65951,-1.075272 -6.25613,-2.671888 l -1.6292,1.889872 c 1.92246,1.922456 4.62693,3.160648 7.75499,3.160648 z" />
    </g>
  </g>
  <g
     aria-label="ify"
     id="text6799"
     style="font-size:17.7643px;line-height:1.25;font-family:Niconne;-inkscape-font-specification:Niconne;stroke-width:0.444109">
    <path
       d="m 57.909351,21.637021 q -0.364307,0 -0.572483,-0.225523 -0.208175,-0.225523 -0.208175,-0.615852 0,-0.399003 0.199501,-1.075573 0.208176,-0.685244 0.407677,-1.240378 0.208175,-0.555135 0.208175,-0.737288 0,-0.190828 -0.121435,-0.190828 -0.303589,0 -0.980159,1.197009 l -0.581157,-0.338285 q 1.275075,-2.151146 2.341974,-2.151146 0.728613,0 0.728613,0.919441 0,0.268894 -0.173479,0.858724 l -0.624526,1.786839 q -0.09541,0.251545 -0.09541,0.45972 0,0.199502 0.156132,0.199502 0.294915,0 1.084246,-1.092921 l 0.364307,0.338285 q -0.468394,0.867397 -1.118942,1.387836 -0.641875,0.520438 -1.014855,0.520438 z m 2.472082,-7.936686 q 0,0.346959 -0.234197,0.6332 -0.234197,0.286241 -0.6332,0.286241 -0.399003,0 -0.598504,-0.234197 -0.199502,-0.242872 -0.199502,-0.607179 0,-0.364306 0.242871,-0.641874 0.251546,-0.286241 0.641875,-0.286241 0.390328,0 0.581156,0.251545 0.199501,0.242872 0.199501,0.598505 z"
       id="path836" />
    <path
       d="m 63.634174,17.022467 -0.208176,0.884745 q -0.581156,2.454735 -0.962811,3.452242 -0.737288,1.8996 -1.890926,2.402691 -0.477069,0.208175 -0.962811,0.208175 -0.494417,0 -0.693918,-0.190827 -0.199502,-0.182154 -0.199502,-0.451047 0,-0.260219 0.17348,-0.451046 0.173479,-0.190828 0.442372,-0.190828 0.26022,0 0.433699,0.121436 0.17348,0.121435 0.17348,0.329611 0,0.216849 -0.121436,0.407677 0.893419,-0.138784 1.604685,-3.38285 0.112762,-0.511765 0.251545,-1.214357 0.147458,-0.711266 0.225524,-1.040877 l 0.208175,-0.884745 h -1.630707 l 0.138784,-0.572482 h 1.613359 q 1.032203,-4.18953 2.420039,-5.846259 1.144964,-1.3618141 2.766997,-1.3618141 0.728614,0 1.223031,0.2949151 0.50309,0.2949152 0.50309,0.980159 0,0.399003 -0.277567,0.6332 -0.268893,0.225524 -0.641874,0.225524 -0.364307,0 -0.624526,-0.208176 -0.251545,-0.216849 -0.251545,-0.555134 0,-0.338285 0.234197,-0.6592222 -0.425025,-0.1474576 -0.667896,-0.1474576 -0.242871,0 -0.581156,0.2428718 -0.329611,0.234197 -0.589831,0.6332 -1.014855,1.561315 -1.977666,5.768193 h 2.07308 l -0.138783,0.572482 z"
       id="path838" />
    <path
       d="m 65.889406,18.497042 -0.563808,-0.338285 q 0.433699,-0.754635 1.075573,-1.327118 0.650548,-0.572482 1.162312,-0.572482 0.832702,0 0.832702,0.745962 0,0.312263 -0.433699,1.517945 -0.425025,1.205683 -0.425025,1.52662 0,0.320937 0.04337,0.416351 0.04337,0.08674 0.190828,0.08674 0.789331,0 1.622033,-0.58983 0.841375,-0.598504 1.092921,-1.318444 l 0.607178,-1.769491 q 0.09541,-0.268893 0.294915,-0.425024 0.199501,-0.156132 0.381655,-0.156132 0.190827,0 0.303589,0.121436 0.121436,0.121435 0.121436,0.320937 0,0.199501 -0.07807,0.41635 l -0.659222,1.925623 q -0.546461,1.700099 -1.691425,3.348154 0.997507,0.104088 1.778165,0.355633 l -0.06939,0.485742 q -1.197009,-0.242871 -2.11645,-0.286241 -0.841375,1.084247 -1.726121,1.726121 -0.876071,0.650548 -1.535293,0.650548 -0.650548,0 -0.971485,-0.268893 -0.329611,-0.260219 -0.329611,-0.71994 0,-0.459721 0.346959,-0.841375 0.346958,-0.372981 0.928115,-0.607179 1.17966,-0.485742 2.70628,-0.555134 0.121435,-0.138784 0.581156,-0.971485 0.459721,-0.841376 0.494417,-1.058225 -1.535294,1.301096 -2.70628,1.301096 -0.477069,0 -0.693918,-0.320937 -0.21685,-0.329611 -0.21685,-0.806679 0,-0.477069 0.355633,-1.630708 0.364307,-1.162312 0.364307,-1.318444 0,-0.164805 -0.07807,-0.164805 -0.06939,0 -0.156131,0.04337 -0.08674,0.0347 -0.17348,0.121435 -0.07806,0.07807 -0.147457,0.156132 -0.06939,0.06939 -0.156132,0.199501 -0.07807,0.13011 -0.121435,0.199502 -0.182154,0.286241 -0.234198,0.381654 z m 2.506779,4.484445 q -0.702592,0.04337 -1.431206,0.251545 -1.405184,0.399003 -1.405184,0.93679 0,0.320937 0.399003,0.320937 0.399003,0 1.301096,-0.581157 0.902094,-0.572482 1.136291,-0.928115 z"
       id="path840" />
  </g>
</svg>
