<?xml version="1.0" encoding="UTF-8"?>
<svg width="273" height="96" version="1.1" viewBox="0 0 72.231 25.4" xmlns="http://www.w3.org/2000/svg" xmlns:cc="http://creativecommons.org/ns#" xmlns:dc="http://purl.org/dc/elements/1.1/" xmlns:rdf="http://www.w3.org/1999/02/22-rdf-syntax-ns#">
 <metadata>
  <rdf:RDF>
   <cc:Work rdf:about="">
    <dc:format>image/svg+xml</dc:format>
    <dc:type rdf:resource="http://purl.org/dc/dcmitype/StillImage"/>
   </cc:Work>
  </rdf:RDF>
 </metadata>
 <g transform="translate(231.19 -23.387)">
  <g transform="translate(5.252 28.165)" opacity=".99" aria-label="GJS">
   <path d="m-227.19 17.379c2.7696 0 5.0505-1.1079 6.3865-2.4764v-8.9932h-6.7775v2.2483h4.2685v5.5719c-0.8146 0.78202-2.2157 1.2708-3.7146 1.2708-4.2033 0-6.582-3.3887-6.582-8.7651 0-5.3112 2.6393-8.6348 6.6471-8.6348 2.0528 0 3.3236 0.84718 4.3663 1.955l1.5314-1.727c-1.2056-1.2708-3.0629-2.6067-5.8977-2.6067-5.5393 0-9.4819 4.1708-9.4819 11.079 0 6.973 3.8775 11.079 9.2539 11.079z" fill="#4a86cf" stroke-width=".87279"/>
   <path d="m-209.64 17.379c5.3112 0 7.0707-3.2584 7.0707-7.2336v-14.565h-11.665v2.2809h8.9606v12.056c0 3.5191-1.3685 5.0831-4.4314 5.0831-1.6618 0-3.3887-0.91235-4.5944-2.8348l-1.6944 1.6618c1.4663 2.4438 3.9752 3.5517 6.3539 3.5517z" fill="#fff" stroke-width=".87279"/>
   <path d="m-189.16 17.379c4.6921 0 7.5595-2.7045 7.5595-6.0932 0-3.1606-2.0854-4.6269-4.7247-5.7022l-2.9977-1.3034c-1.8247-0.74943-3.8123-1.4989-3.8123-3.5517 0-1.9225 1.6618-3.1281 4.1382-3.1281 2.2157 0 3.8449 0.78202 5.246 2.0202l1.4337-1.7595c-1.564-1.564-3.9101-2.6393-6.582-2.6393-4.073 0-7.0056 2.4112-7.0056 5.6696 0 3.1281 2.4764 4.6595 4.6269 5.5067l3.0629 1.3359c2.1831 0.94494 3.8449 1.5966 3.8449 3.8775 0 1.9876-1.727 3.3887-4.6595 3.3887-2.4438 0-4.6595-1.0753-6.2561-2.6719l-1.6292 1.8899c1.9225 1.9225 4.6269 3.1606 7.755 3.1606z" fill="#fff" stroke-width=".87286"/>
  </g>
 </g>
 <g fill="#fff" stroke-width=".44411" aria-label="ify">
  <path d="m57.909 21.637q-0.36431 0-0.57248-0.22552-0.20818-0.22552-0.20818-0.61585 0-0.399 0.1995-1.0756 0.20818-0.68524 0.40768-1.2404 0.20818-0.55514 0.20818-0.73729 0-0.19083-0.12144-0.19083-0.30359 0-0.98016 1.197l-0.58116-0.33828q1.2751-2.1511 2.342-2.1511 0.72861 0 0.72861 0.91944 0 0.26889-0.17348 0.85872l-0.62453 1.7868q-0.09541 0.25154-0.09541 0.45972 0 0.1995 0.15613 0.1995 0.29492 0 1.0842-1.0929l0.36431 0.33828q-0.46839 0.8674-1.1189 1.3878-0.64188 0.52044-1.0149 0.52044zm2.4721-7.9367q0 0.34696-0.2342 0.6332t-0.6332 0.28624-0.5985-0.2342q-0.1995-0.24287-0.1995-0.60718 0-0.36431 0.24287-0.64187 0.25155-0.28624 0.64188-0.28624 0.39033 0 0.58116 0.25154 0.1995 0.24287 0.1995 0.5985z"/>
  <path d="m63.634 17.022-0.20818 0.88474q-0.58116 2.4547-0.96281 3.4522-0.73729 1.8996-1.8909 2.4027-0.47707 0.20818-0.96281 0.20818-0.49442 0-0.69392-0.19083-0.1995-0.18215-0.1995-0.45105 0-0.26022 0.17348-0.45105 0.17348-0.19083 0.44237-0.19083 0.26022 0 0.4337 0.12144 0.17348 0.12144 0.17348 0.32961 0 0.21685-0.12144 0.40768 0.89342-0.13878 1.6047-3.3828 0.11276-0.51176 0.25154-1.2144 0.14746-0.71127 0.22552-1.0409l0.20818-0.88474h-1.6307l0.13878-0.57248h1.6134q1.0322-4.1895 2.42-5.8463 1.145-1.3618 2.767-1.3618 0.72861 0 1.223 0.29492 0.50309 0.29492 0.50309 0.98016 0 0.399-0.27757 0.6332-0.26889 0.22552-0.64187 0.22552-0.36431 0-0.62453-0.20818-0.25154-0.21685-0.25154-0.55513t0.2342-0.65922q-0.42502-0.14746-0.6679-0.14746t-0.58116 0.24287q-0.32961 0.2342-0.58983 0.6332-1.0149 1.5613-1.9777 5.7682h2.0731l-0.13878 0.57248z"/>
  <path d="m65.889 18.497-0.56381-0.33828q0.4337-0.75464 1.0756-1.3271 0.65055-0.57248 1.1623-0.57248 0.8327 0 0.8327 0.74596 0 0.31226-0.4337 1.5179-0.42502 1.2057-0.42502 1.5266t0.04337 0.41635q0.04337 0.08674 0.19083 0.08674 0.78933 0 1.622-0.58983 0.84138-0.5985 1.0929-1.3184l0.60718-1.7695q0.09541-0.26889 0.29492-0.42502 0.1995-0.15613 0.38166-0.15613 0.19083 0 0.30359 0.12144 0.12144 0.12144 0.12144 0.32094 0 0.1995-0.07807 0.41635l-0.65922 1.9256q-0.54646 1.7001-1.6914 3.3482 0.99751 0.10409 1.7782 0.35563l-0.06939 0.48574q-1.197-0.24287-2.1164-0.28624-0.84138 1.0842-1.7261 1.7261-0.87607 0.65055-1.5353 0.65055-0.65055 0-0.97148-0.26889-0.32961-0.26022-0.32961-0.71994t0.34696-0.84138q0.34696-0.37298 0.92812-0.60718 1.1797-0.48574 2.7063-0.55513 0.12144-0.13878 0.58116-0.97148 0.45972-0.84138 0.49442-1.0582-1.5353 1.3011-2.7063 1.3011-0.47707 0-0.69392-0.32094-0.21685-0.32961-0.21685-0.80668 0-0.47707 0.35563-1.6307 0.36431-1.1623 0.36431-1.3184 0-0.1648-0.07807-0.1648-0.06939 0-0.15613 0.04337-0.08674 0.0347-0.17348 0.12144-0.07806 0.07807-0.14746 0.15613-0.06939 0.06939-0.15613 0.1995-0.07807 0.13011-0.12144 0.1995-0.18215 0.28624-0.2342 0.38165zm2.5068 4.4844q-0.70259 0.04337-1.4312 0.25154-1.4052 0.399-1.4052 0.93679 0 0.32094 0.399 0.32094t1.3011-0.58116q0.90209-0.57248 1.1363-0.92812z"/>
 </g>
</svg>
