<?xml version="1.0" standalone="no"?>
<!DOCTYPE svg PUBLIC "-//W3C//DTD SVG 20010904//EN"
 "http://www.w3.org/TR/2001/REC-SVG-20010904/DTD/svg10.dtd">
<svg version="1.0" xmlns="http://www.w3.org/2000/svg"
 width="2184.000000pt" height="2184.000000pt" viewBox="0 0 2184.000000 2184.000000"
 preserveAspectRatio="xMidYMid meet">
<metadata>
Created by potrace 1.14, written by Peter Selinger 2001-2017
</metadata>
<g transform="translate(0.000000,2184.000000) scale(0.100000,-0.100000)"
fill="#000000" stroke="none">
<path d="M2669 14756 c-2 -2 -47 -7 -99 -10 -52 -4 -104 -9 -115 -12 -11 -2
-36 -6 -55 -9 -19 -2 -45 -6 -56 -9 -12 -2 -39 -7 -60 -10 -64 -11 -276 -65
-334 -87 -30 -11 -63 -22 -72 -24 -9 -2 -27 -9 -40 -16 -13 -7 -25 -12 -28
-11 -3 0 -25 -8 -49 -19 -24 -10 -46 -19 -50 -19 -10 0 -229 -112 -287 -147
-62 -38 -137 -86 -144 -93 -3 -3 -18 -14 -35 -24 -61 -39 -243 -194 -330 -282
-123 -125 -229 -252 -310 -374 -16 -25 -32 -47 -35 -50 -21 -19 -234 -406
-230 -418 0 -1 -6 -15 -13 -30 -8 -15 -24 -54 -36 -87 -13 -33 -27 -69 -32
-80 -35 -77 -144 -451 -164 -560 -2 -16 -7 -41 -10 -55 -3 -14 -8 -36 -10 -50
-2 -14 -9 -54 -15 -90 -6 -36 -13 -83 -15 -105 -2 -22 -6 -53 -9 -70 -6 -35
-14 -114 -24 -240 -8 -113 -8 -620 1 -740 6 -88 13 -161 22 -237 3 -21 7 -57
10 -80 13 -109 55 -331 76 -403 7 -22 13 -49 14 -60 1 -11 4 -27 7 -35 3 -8
11 -35 18 -60 36 -128 74 -240 133 -390 43 -110 177 -382 201 -409 8 -9 15
-20 15 -24 1 -21 181 -276 262 -372 84 -99 308 -313 384 -367 5 -4 33 -26 62
-48 29 -22 57 -40 63 -40 5 0 10 -4 10 -9 0 -5 15 -16 33 -25 17 -8 52 -29 77
-46 25 -16 50 -30 57 -30 6 0 13 -4 15 -8 5 -13 227 -118 333 -157 104 -39
310 -100 368 -109 18 -3 40 -7 48 -10 8 -3 32 -7 54 -10 22 -3 51 -8 65 -10
33 -6 116 -17 160 -22 19 -2 94 -6 165 -8 72 -3 132 -6 135 -7 3 -1 9 -1 13 0
5 1 66 4 135 7 70 3 141 7 157 9 17 2 53 6 80 10 28 3 59 7 70 9 79 14 113 19
130 22 11 1 20 3 20 4 0 1 9 3 20 5 11 2 50 11 85 20 36 9 72 17 80 19 8 2 44
13 79 25 35 12 72 21 82 21 9 0 19 3 21 8 2 4 28 15 58 26 69 23 263 106 270
115 3 3 38 22 77 41 40 19 73 38 73 43 0 4 5 7 11 7 12 0 183 112 215 141 11
11 25 19 32 19 6 0 15 6 19 13 4 6 37 37 73 67 36 30 79 70 97 88 l32 35 0
1358 0 1358 -1019 0 c-753 0 -1021 -3 -1027 -11 -3 -7 -6 -37 -4 -67 1 -31 2
-63 2 -71 -2 -71 -2 -168 0 -175 1 -6 1 -12 0 -15 -7 -20 -4 -127 3 -123 5 4
6 0 1 -7 -8 -14 -10 -138 -2 -147 3 -3 2 -16 -3 -29 -6 -15 -6 -26 1 -30 6 -3
298 -6 650 -6 l639 1 0 -843 0 -843 -37 -33 c-63 -55 -199 -139 -296 -185
-141 -66 -347 -126 -477 -140 -19 -2 -35 -5 -35 -5 0 -7 -139 -14 -275 -15
-186 0 -310 11 -425 37 -27 7 -54 12 -60 13 -43 4 -230 69 -320 111 -44 21
-82 38 -85 39 -3 0 -16 8 -30 16 -14 9 -50 32 -81 50 -160 98 -330 255 -453
419 -22 30 -44 57 -48 58 -5 2 -8 9 -8 15 0 6 -8 19 -18 30 -17 19 -49 73
-114 192 -30 54 -50 97 -102 220 -9 22 -21 49 -26 60 -7 16 -30 85 -35 105 -1
3 -4 12 -8 20 -8 23 -29 90 -31 103 -1 7 -5 17 -8 23 -4 6 -10 26 -13 45 -3
19 -11 52 -16 74 -12 43 -16 62 -24 110 -3 17 -8 37 -10 45 -2 8 -7 30 -10 48
-3 17 -7 44 -10 60 -2 15 -6 41 -9 57 -6 37 -15 112 -22 185 -3 30 -7 73 -10
95 -20 186 -20 645 0 812 3 21 8 70 11 108 4 39 8 77 10 85 3 8 7 33 10 55 2
22 6 49 9 60 2 11 7 40 12 65 9 52 11 59 14 63 1 1 4 14 6 29 4 41 56 241 64
253 4 6 11 26 16 45 10 43 9 42 17 60 4 8 22 56 41 105 51 135 135 303 204
407 17 28 32 54 32 59 0 5 5 9 10 9 6 0 10 7 10 15 0 8 5 15 10 15 6 0 10 6
10 14 0 8 3 16 8 18 4 2 32 35 63 73 187 234 435 423 699 532 83 35 187 71
222 77 13 3 23 5 23 6 0 1 7 3 15 5 8 2 29 6 45 10 17 3 39 8 50 10 11 2 34 6
50 9 162 28 502 29 655 1 43 -7 74 -14 100 -20 14 -3 34 -8 46 -10 132 -28
392 -148 503 -232 9 -7 40 -30 70 -52 72 -53 141 -113 216 -188 l62 -62 114
127 c63 71 141 159 174 196 33 38 71 80 85 95 14 15 40 45 58 66 l33 40 -84
80 c-103 99 -149 141 -207 185 -25 19 -49 38 -55 43 -133 106 -391 252 -554
314 -89 34 -239 82 -275 89 -16 3 -32 6 -35 8 -3 2 -22 7 -41 10 -19 3 -46 8
-60 11 -103 24 -243 37 -441 40 -125 2 -228 3 -230 1z"/>
<path d="M14189 14756 c-2 -2 -42 -7 -89 -10 -47 -3 -101 -8 -120 -11 -223
-36 -406 -83 -594 -155 -11 -4 -24 -8 -29 -9 -10 -1 -271 -134 -277 -141 -3
-3 -30 -21 -60 -40 -101 -63 -200 -142 -304 -246 -74 -74 -83 -84 -131 -149
-16 -22 -33 -42 -37 -45 -15 -11 -91 -141 -132 -225 -62 -128 -122 -304 -131
-385 -3 -25 -13 -94 -20 -141 -8 -45 -9 -195 -2 -206 4 -7 3 -14 -2 -17 -5 -3
-5 -22 -1 -43 5 -21 11 -63 13 -93 10 -104 32 -203 63 -285 4 -11 8 -22 9 -25
19 -73 102 -237 166 -330 92 -134 182 -233 309 -340 36 -30 67 -58 70 -61 3
-3 27 -21 54 -40 187 -132 414 -255 631 -344 50 -21 108 -45 130 -55 22 -10
94 -42 160 -70 66 -29 138 -60 160 -70 22 -10 74 -32 115 -50 41 -18 88 -38
104 -46 16 -8 35 -14 43 -14 7 0 13 -4 13 -10 0 -5 6 -10 14 -10 8 0 58 -20
110 -44 53 -25 96 -43 96 -41 0 2 28 -10 62 -27 35 -17 83 -38 108 -48 25 -10
70 -29 100 -43 30 -14 78 -35 105 -47 343 -152 578 -317 693 -487 46 -68 77
-125 74 -135 -1 -5 3 -8 10 -8 6 0 9 -3 5 -6 -3 -4 0 -18 7 -33 12 -23 30 -88
42 -146 27 -136 23 -336 -11 -455 -8 -30 -17 -62 -19 -70 -2 -8 -13 -36 -25
-63 -11 -26 -20 -50 -20 -52 0 -15 -108 -158 -159 -210 -70 -71 -97 -95 -154
-132 -24 -15 -46 -32 -50 -38 -4 -5 -8 -6 -8 -1 0 5 -8 2 -17 -6 -43 -38 -278
-135 -369 -152 -10 -2 -37 -9 -59 -14 -38 -10 -72 -17 -140 -27 -173 -27 -557
-27 -705 -1 -14 2 -44 7 -68 10 -24 3 -47 8 -52 11 -5 3 -25 6 -45 7 -20 1
-38 5 -41 10 -3 4 -14 8 -24 8 -22 0 -253 66 -295 85 -16 7 -59 24 -95 38
-167 65 -394 187 -531 287 -26 19 -57 42 -69 50 -63 43 -168 130 -249 207 -36
35 -70 62 -76 62 -5 0 -89 -93 -185 -206 -96 -112 -184 -215 -195 -227 -11
-13 -39 -44 -62 -70 -24 -26 -43 -51 -43 -56 0 -19 141 -148 288 -264 101 -79
294 -210 372 -252 19 -10 37 -21 40 -24 9 -10 273 -138 340 -165 97 -40 212
-79 330 -114 58 -17 119 -35 135 -40 17 -5 48 -13 70 -17 22 -4 42 -8 45 -9
54 -13 241 -44 300 -50 19 -2 71 -7 115 -11 100 -10 483 -11 590 -2 115 10
261 30 330 45 11 2 31 6 45 9 21 4 59 13 130 29 47 11 226 70 304 101 171 67
366 177 511 288 57 43 185 156 211 186 12 14 34 39 48 55 111 125 265 372 299
481 3 10 18 53 32 94 41 120 75 281 80 378 1 29 4 54 6 56 5 5 2 172 -5 276
-4 68 -8 95 -20 155 -2 11 -10 49 -16 85 -7 36 -17 70 -22 76 -5 7 -8 16 -7
20 1 5 0 16 -3 24 -3 8 -14 38 -23 65 -44 127 -154 317 -248 429 -71 84 -194
203 -261 251 -16 11 -34 25 -41 32 -23 21 -176 123 -185 123 -6 0 -10 5 -10
10 0 6 -5 10 -10 10 -6 0 -29 12 -52 26 -41 26 -280 147 -348 176 -19 9 -61
27 -93 42 -32 14 -60 26 -63 26 -3 0 -97 41 -210 90 -112 50 -206 90 -209 90
-3 0 -28 11 -57 25 -28 14 -58 25 -65 25 -7 0 -13 5 -13 10 0 6 -6 10 -14 10
-11 0 -78 28 -191 80 -11 5 -81 34 -155 66 -74 31 -148 62 -165 69 -16 7 -70
30 -120 51 -49 20 -94 41 -100 46 -5 4 -16 8 -25 8 -9 0 -22 6 -29 13 -6 6
-15 12 -19 12 -13 0 -227 118 -230 126 -2 5 -8 9 -13 9 -19 0 -165 115 -228
179 -76 78 -151 189 -181 269 -27 71 -53 190 -47 214 3 10 2 18 -2 18 -4 0 -6
35 -5 78 2 42 3 77 4 77 1 0 3 9 4 20 13 104 34 179 72 262 25 54 104 173 115
173 5 0 9 4 9 10 0 15 86 95 155 145 90 64 273 155 343 169 9 1 24 6 32 9 8 4
26 9 40 11 14 3 36 8 50 11 14 4 34 8 45 10 11 2 34 6 50 9 139 27 621 28 696
1 8 -2 32 -7 54 -9 51 -7 93 -14 125 -23 14 -4 30 -7 35 -8 25 -1 218 -64 311
-101 38 -15 112 -50 164 -77 52 -27 105 -54 117 -61 13 -6 23 -14 23 -18 0 -5
5 -8 10 -8 13 0 164 -100 168 -112 2 -4 8 -8 13 -8 10 0 9 1 124 -94 43 -36
82 -62 86 -58 3 4 46 57 95 117 49 61 93 115 99 121 5 7 22 27 37 45 14 19 63
79 107 134 45 55 81 103 81 107 0 6 -24 30 -113 112 -46 42 -158 129 -227 177
-36 24 -67 47 -70 50 -3 3 -12 9 -20 13 -23 11 -56 31 -71 42 -8 6 -39 25 -69
41 -30 16 -64 35 -75 41 -28 16 -193 92 -200 92 -3 0 -24 9 -48 19 -23 11 -85
34 -137 51 -52 18 -102 35 -110 38 -8 3 -19 6 -25 7 -5 2 -37 10 -70 19 -33 9
-71 19 -85 22 -174 35 -233 45 -280 49 -30 3 -66 7 -80 11 -27 6 -485 15 -491
10z"/>
<path d="M6721 14645 c-4 -5 -7 -161 -7 -345 l1 -335 37 -1 c21 0 40 -3 44 -6
3 -4 12 -4 18 -2 23 9 137 10 142 2 3 -5 10 -5 16 -2 9 6 1439 10 1463 4 6 -1
12 -1 15 0 15 6 103 4 107 -3 2 -4 9 -4 15 -1 13 8 831 9 844 2 10 -7 11
-3766 0 -3898 -7 -89 -14 -148 -21 -190 -3 -14 -7 -41 -10 -60 -5 -29 -34
-155 -50 -220 -23 -89 -95 -245 -154 -334 -86 -130 -221 -252 -357 -324 -51
-26 -252 -105 -262 -102 -1 1 -26 -3 -55 -9 -28 -6 -65 -13 -82 -16 -65 -13
-157 -18 -315 -19 -150 -1 -205 3 -280 19 -14 2 -34 7 -45 9 -103 21 -202 54
-283 95 -24 11 -48 21 -52 21 -19 0 -270 159 -270 172 0 4 -4 8 -10 8 -22 0
-228 197 -293 279 -23 29 -47 58 -52 65 -32 35 -75 95 -75 103 0 6 -9 18 -20
28 -11 10 -20 24 -20 32 0 28 -25 10 -129 -92 -337 -330 -391 -385 -391 -394
0 -12 68 -116 132 -200 116 -155 282 -319 431 -428 39 -29 77 -56 82 -60 39
-31 202 -122 291 -164 100 -48 337 -133 414 -150 19 -4 46 -10 60 -13 77 -18
173 -33 270 -43 93 -10 464 -9 545 1 33 3 83 9 110 12 28 2 59 6 70 8 11 2 38
7 59 11 22 5 47 9 55 10 9 1 30 5 46 9 17 4 50 12 75 18 129 30 460 157 490
188 3 3 16 11 30 19 14 8 34 19 44 25 23 13 21 11 106 73 36 27 78 59 95 73
42 36 205 203 205 211 0 3 9 16 19 28 11 12 36 48 57 79 21 31 45 68 55 82 16
26 72 130 74 140 0 3 11 25 24 50 13 25 24 47 24 50 0 3 4 16 9 30 5 14 9 26
9 28 -1 1 6 16 14 32 8 16 15 31 14 32 0 2 5 16 11 32 6 16 12 38 15 50 2 11
4 21 5 21 1 0 3 7 5 15 30 123 44 181 49 210 3 19 8 46 11 60 3 13 7 42 10 65
4 22 8 51 10 65 8 52 17 158 21 240 1 47 4 85 4 85 1 0 2 33 3 73 1 39 -2 72
-6 72 -5 0 -5 6 -1 12 11 17 11 318 1 318 -5 0 -5 5 -1 12 11 17 11 228 1 228
-5 0 -5 5 -1 12 11 17 11 228 0 228 -5 0 -4 6 1 13 5 6 7 59 6 117 -2 58 -3
111 -3 118 0 6 0 59 0 117 0 58 0 112 0 120 0 8 0 62 0 120 0 58 0 112 0 120
0 8 0 62 0 120 0 58 0 112 0 120 0 8 0 62 0 120 0 58 0 112 0 120 0 8 0 62 0
120 0 58 0 112 0 120 0 8 0 62 0 120 0 58 0 112 0 120 0 8 0 62 0 120 0 58 0
112 0 120 0 8 0 62 0 120 0 58 0 112 0 120 0 8 0 62 0 120 0 58 0 112 0 120 0
8 0 62 0 120 0 58 0 112 0 120 0 8 0 62 0 120 0 58 0 112 0 120 0 8 0 62 0
120 0 58 0 112 0 120 0 8 0 62 0 120 0 58 0 111 0 118 0 6 1 54 2 106 2 65 -1
95 -9 98 -26 10 -3505 8 -3512 -2z"/>
<path d="M20285 11962 c-2 -2 -19 -5 -37 -7 -18 -1 -46 -5 -63 -9 -16 -3 -41
-8 -54 -11 -64 -12 -242 -85 -286 -117 -185 -136 -249 -196 -356 -340 -123
-166 -220 -346 -354 -663 -17 -40 -69 -178 -71 -190 -2 -5 -20 -62 -42 -125
-53 -153 -91 -271 -95 -295 -2 -11 -11 -45 -21 -76 -9 -31 -18 -65 -20 -76 -3
-11 -13 -51 -24 -89 -11 -38 -25 -92 -32 -121 -6 -28 -17 -53 -23 -55 -7 -2
-117 -3 -244 -3 -227 1 -233 1 -239 -19 -4 -12 -7 -22 -6 -23 0 -2 -6 -26 -14
-55 -7 -29 -14 -58 -14 -64 0 -8 72 -11 236 -10 130 1 239 -1 243 -4 4 -3 -9
-77 -30 -165 -21 -88 -40 -173 -43 -190 -3 -16 -8 -39 -10 -50 -9 -35 -36
-159 -41 -185 -3 -14 -7 -36 -10 -50 -3 -14 -8 -38 -10 -55 -3 -16 -8 -37 -10
-45 -2 -8 -6 -26 -9 -40 -2 -14 -14 -70 -26 -125 -12 -55 -23 -107 -25 -115
-95 -432 -236 -783 -359 -890 -28 -24 -84 -59 -97 -60 -3 0 2 24 11 53 36 109
-8 181 -124 202 -63 12 -124 -3 -166 -41 -86 -78 -87 -215 -1 -287 42 -35 98
-50 196 -52 231 -4 436 99 609 306 32 39 136 198 136 208 0 6 7 19 15 28 8 10
16 23 17 28 0 6 15 39 33 75 18 36 42 92 54 125 13 33 27 69 33 80 5 12 10 27
12 35 3 16 61 209 76 250 17 50 168 638 186 730 14 69 53 223 58 228 3 3 144
6 313 6 l307 1 17 65 c32 118 65 106 -291 106 -170 -1 -310 1 -310 4 0 3 7 30
15 60 8 30 18 69 21 85 3 17 12 57 21 90 9 33 17 69 19 80 1 11 3 20 4 20 1 0
3 7 5 15 22 88 88 331 102 375 10 28 18 55 19 60 2 6 5 19 8 30 2 11 19 65 37
120 18 55 34 102 34 105 1 3 4 12 8 20 27 72 57 157 57 165 1 6 9 28 20 50 11
22 19 43 20 46 0 4 9 27 20 53 12 25 21 48 20 51 0 13 134 264 174 324 91 136
237 247 336 253 46 3 125 -10 172 -29 l39 -15 -19 -32 c-64 -109 -62 -235 5
-311 17 -19 72 -59 83 -60 3 -1 14 -4 25 -8 20 -6 90 -18 110 -18 72 0 171 45
215 100 88 106 67 318 -41 416 -60 54 -179 104 -289 121 -48 7 -229 12 -235 6z"/>
<path d="M17954 10864 c-27 -7 -52 -13 -55 -14 -14 -1 -100 -95 -113 -123 -47
-107 -41 -213 18 -305 23 -36 89 -72 139 -77 17 -2 37 -5 42 -6 18 -5 96 11
126 26 45 24 87 70 116 128 48 94 32 232 -36 314 -47 57 -147 81 -237 57z"/>
<path d="M17697 9844 c-1 -1 -22 -5 -46 -9 -88 -13 -193 -79 -301 -187 -83
-84 -94 -96 -141 -158 -18 -25 -37 -46 -41 -48 -5 -2 -8 -10 -8 -18 0 -8 -4
-14 -10 -14 -5 0 -10 -6 -10 -14 0 -8 -4 -16 -8 -18 -4 -1 -33 -43 -64 -92
-52 -82 -55 -91 -40 -102 9 -8 23 -14 30 -14 6 0 12 -4 12 -10 0 -5 7 -10 15
-10 8 0 15 -5 15 -12 0 -6 3 -9 6 -6 3 4 22 -5 42 -18 l36 -25 20 33 c136 223
225 328 276 328 59 0 50 -61 -57 -380 -49 -146 -90 -268 -91 -272 -1 -5 -2 -9
-3 -10 -9 -32 -39 -161 -45 -198 -37 -235 46 -370 226 -370 124 1 343 156 498
353 83 105 146 212 135 230 -12 20 -89 87 -99 86 -5 0 -33 -33 -62 -73 -60
-83 -163 -193 -209 -224 -36 -25 -75 -28 -93 -7 -12 14 -9 123 4 144 6 10 87
237 91 256 1 5 7 23 13 38 7 16 12 31 12 33 0 3 20 60 44 127 67 184 89 278
89 382 0 102 -3 128 -25 170 -25 48 -67 84 -112 96 -39 11 -93 18 -99 13z"/>
<path d="M20367 9838 c-47 -10 -144 -53 -164 -73 -8 -8 -18 -15 -22 -15 -4 0
-17 -8 -29 -17 -11 -10 -38 -33 -60 -51 -33 -27 -101 -94 -172 -171 -26 -28
-95 -123 -133 -183 -26 -42 -33 -59 -24 -65 14 -9 27 -17 102 -61 54 -32 58
-32 71 -15 7 10 14 23 14 30 0 6 4 13 8 15 4 2 26 32 47 68 22 36 49 76 61 90
13 14 31 34 41 46 23 26 86 64 106 64 19 0 35 -27 32 -55 -2 -20 -28 -117 -60
-225 -9 -30 -17 -62 -19 -70 -2 -8 -16 -51 -30 -95 -67 -209 -106 -390 -107
-498 0 -48 2 -91 5 -95 3 -5 7 -19 10 -33 8 -46 36 -99 72 -139 51 -56 112
-74 228 -67 50 3 104 8 120 12 45 9 214 74 255 98 20 11 49 27 64 36 46 26 58
34 127 80 36 25 67 48 68 53 2 4 10 8 17 8 7 0 15 3 17 8 4 10 93 82 101 82 8
0 -19 -70 -50 -129 -13 -24 -23 -50 -23 -57 0 -7 -8 -18 -17 -23 -10 -6 -14
-11 -10 -11 5 0 -1 -17 -13 -37 -12 -21 -41 -72 -63 -113 -22 -41 -43 -77 -47
-80 -4 -3 -9 -12 -12 -21 -9 -25 -78 -129 -86 -130 -4 0 -26 -2 -49 -4 -128
-8 -212 -19 -378 -49 -17 -3 -89 -18 -105 -21 -3 -1 -39 -12 -80 -24 -41 -13
-79 -24 -85 -26 -5 -1 -19 -6 -30 -10 -186 -76 -264 -120 -340 -192 -38 -37
-95 -106 -95 -117 0 -2 -5 -17 -12 -33 -17 -42 -22 -72 -21 -138 1 -94 20
-140 80 -196 71 -65 179 -98 309 -94 89 3 142 15 229 53 62 27 244 142 265
167 7 8 18 15 26 15 7 0 17 6 21 13 4 6 40 39 78 72 39 33 72 63 75 66 3 4 41
45 85 91 44 45 109 118 145 161 l64 78 70 -6 c39 -3 78 -6 86 -6 68 -3 330
-43 455 -69 23 -5 34 1 29 15 -4 8 -2 21 3 28 5 6 9 32 8 56 l0 44 -55 18
c-30 10 -56 16 -58 14 -2 -2 -15 0 -28 5 -14 6 -35 12 -47 14 -12 3 -47 10
-77 16 -69 14 -102 19 -165 26 -108 12 -105 4 -35 110 28 42 50 79 50 84 0 5
4 10 8 12 14 5 150 251 213 383 60 127 124 280 128 308 0 4 8 21 16 37 9 17
13 30 9 30 -4 0 -2 6 3 13 5 6 20 44 32 82 12 39 25 77 28 85 4 8 7 17 8 20 0
3 9 30 20 60 10 30 20 60 21 65 3 10 91 269 101 295 4 8 7 18 8 23 2 4 3 8 5
10 7 9 12 51 14 107 1 51 -3 71 -19 92 -80 109 -256 32 -311 -135 -9 -29 -19
-56 -22 -61 -2 -4 -42 -118 -88 -253 -46 -135 -88 -251 -93 -257 -5 -6 -9 -15
-9 -19 2 -20 -91 -147 -148 -203 -70 -69 -177 -154 -193 -154 -6 0 -11 -4 -11
-9 0 -5 -12 -14 -27 -20 -16 -7 -53 -25 -83 -42 -44 -24 -120 -53 -172 -65 -5
-1 -9 -2 -10 -3 -5 -4 -83 -12 -131 -13 -68 -3 -79 12 -83 111 -3 82 16 172
67 324 11 34 22 69 24 77 5 17 114 335 116 335 1 0 6 21 29 120 33 139 18 221
-50 277 -50 41 -164 63 -243 46z m303 -2036 c0 -29 -156 -157 -330 -268 -87
-57 -240 -142 -258 -145 -4 -1 -18 -5 -31 -10 -123 -47 -220 -20 -225 63 -7
100 104 188 329 263 104 35 254 74 310 80 17 2 30 4 30 5 0 1 18 3 39 6 22 2
40 5 42 6 7 8 94 8 94 0z"/>
</g>
</svg>
